<?xml version="1.0" encoding="UTF-8" standalone="no"?>
<svg
   xmlns:dc="http://purl.org/dc/elements/1.1/"
   xmlns:cc="http://creativecommons.org/ns#"
   xmlns:rdf="http://www.w3.org/1999/02/22-rdf-syntax-ns#"
   xmlns:svg="http://www.w3.org/2000/svg"
   xmlns="http://www.w3.org/2000/svg"
   xmlns:sodipodi="http://sodipodi.sourceforge.net/DTD/sodipodi-0.dtd"
   xmlns:inkscape="http://www.inkscape.org/namespaces/inkscape"
   enable-background="new 0 0 128 128"
   id="Слой_1"
   version="1.1"
   viewBox="0 0 128 128"
   xml:space="preserve"
   inkscape:version="0.48.4 r9939"
   width="100%"
   height="100%"
   sodipodi:docname="contacto.svg"><metadata
     id="metadata33"><rdf:RDF><cc:Work
         rdf:about=""><dc:format>image/svg+xml</dc:format><dc:type
           rdf:resource="http://purl.org/dc/dcmitype/StillImage" /></cc:Work></rdf:RDF></metadata><defs
     id="defs31" /><sodipodi:namedview
     pagecolor="#ffffff"
     bordercolor="#666666"
     borderopacity="1"
     objecttolerance="10"
     gridtolerance="10"
     guidetolerance="10"
     inkscape:pageopacity="0"
     inkscape:pageshadow="2"
     inkscape:window-width="1440"
     inkscape:window-height="876"
     id="namedview29"
     showgrid="false"
     inkscape:zoom="1.84375"
     inkscape:cx="-36.067797"
     inkscape:cy="64"
     inkscape:window-x="0"
     inkscape:window-y="24"
     inkscape:window-maximized="1"
     inkscape:current-layer="g3" /><g
     id="g3"><path
       d="M84,124H44c-5.5,0-10-4.5-10-10V14c0-5.5,4.5-10,10-10h40c5.5,0,10,4.5,10,10v100C94,119.5,89.5,124,84,124   z"
       fill="#DDCF6F"
       id="path5"
       style="fill:#f38b00;fill-opacity:1" /><g
       id="g7"><path
         d="M81.9,78.6H46.1c-0.9,0-1.6-0.7-1.6-1.6V51c0-0.9,0.7-1.6,1.6-1.6h35.8c0.9,0,1.6,0.7,1.6,1.6v26    C83.5,77.9,82.8,78.6,81.9,78.6z"
         fill="#F7796B"
         id="path9" /><g
         id="g11"><path
           d="M65,66.4c-0.6,0.5-1.5,0.5-2.1,0L44.5,51v4.2l16.4,13.7c0.9,0.7,2,1.1,3.1,1.1     s2.2-0.4,3.1-1.1l16.4-13.7V51L65,66.4z"
           fill="#040607"
           opacity="0.1"
           id="path13" /><path
           d="M81.9,49.4H46.1c-0.9,0-1.6,0.7-1.6,1.6L63,66.4c0.6,0.5,1.5,0.5,2.1,0L83.5,51     C83.5,50.1,82.8,49.4,81.9,49.4z"
           fill="#FCF4E2"
           id="path15" /><path
           d="M81.9,48.9H46.1c-1.1,0-2.1,0.9-2.1,2.1c0,0,0,0,0,0c0,0,0,0,0,0v26c0,0.6,0.3,1.2,0.7,1.6c0,0,0,0,0,0     c0.4,0.3,0.9,0.5,1.4,0.5h35.8c1.2,0,2.1-0.9,2.1-2.1V51C84,49.8,83.1,48.9,81.9,48.9z M45,52l16.2,13.5l-16,12     C45,77.4,45,77.2,45,77V52z M81.9,78.1H46.1c0,0-0.1,0-0.1,0l16-12l0.7,0.6c0.4,0.3,0.9,0.5,1.4,0.5c0.5,0,1-0.2,1.4-0.5l0.8-0.6     l16.4,11.8C82.4,78.1,82.1,78.1,81.9,78.1z M83,77C83,77,83,77.1,83,77L66.9,65.5l13.6-11.3c0.2-0.2,0.2-0.5,0.1-0.7     c-0.2-0.2-0.5-0.2-0.7-0.1L64.7,66c-0.4,0.4-1,0.4-1.5,0L45,50.8c0.1-0.5,0.6-0.9,1.1-0.9h35.8c0.6,0,1.1,0.5,1.1,1.1V77z"
           fill="#5C4862"
           id="path17" /></g></g><path
       d="M84,4H44c-5.5,0-10,4.5-10,10v5h60v-5C94,8.5,89.5,4,84,4z"
       fill="#474F59"
       id="path19" /><path
       d="M44,124h40c5.5,0,10-4.5,10-10v-5H34v5C34,119.5,38.5,124,44,124z"
       fill="#474F59"
       id="path21" /><circle
       cx="64"
       cy="116.5"
       fill="#040607"
       opacity="0.3"
       r="5"
       id="circle23" /><g
       opacity="0.3"
       id="g25"><path
         d="M74,12.5H54c-0.6,0-1-0.4-1-1s0.4-1,1-1h20c0.6,0,1,0.4,1,1S74.6,12.5,74,12.5z"
         fill="#040607"
         id="path27" /></g></g></svg>